<svg xmlns="http://www.w3.org/2000/svg" xmlns:xlink="http://www.w3.org/1999/xlink" viewBox="0 0 165.77 64.92"><defs><style>.cls-1{fill:url(#linear-gradient);}.cls-2{fill:url(#linear-gradient-2);}.cls-3{fill:url(#linear-gradient-3);}.cls-4{fill:url(#linear-gradient-4);}.cls-5{fill:url(#linear-gradient-5);}.cls-6{fill:url(#linear-gradient-6);}.cls-7{font-size:16.53px;fill:#64bd58;stroke:#64bd58;stroke-linecap:round;stroke-linejoin:round;font-family:BernardMT-Condensed, Bernard MT Condensed;letter-spacing:0.02em;}.cls-8{letter-spacing:0em;}.cls-9{letter-spacing:0.02em;}</style><linearGradient id="linear-gradient" x1="26.71" y1="53.6" x2="8.78" y2="3.73" gradientUnits="userSpaceOnUse"><stop offset="0" stop-color="#adf252"/><stop offset="0.15" stop-color="#a6ed53"/><stop offset="0.37" stop-color="#92de54"/><stop offset="0.63" stop-color="#72c757"/><stop offset="0.92" stop-color="#45a65a"/><stop offset="1" stop-color="#379c5b"/></linearGradient><linearGradient id="linear-gradient-2" x1="365.91" y1="574.56" x2="353.08" y2="568.18" gradientTransform="translate(176.4 -651.9) rotate(43.8)" xlink:href="#linear-gradient"/><linearGradient id="linear-gradient-3" x1="1250.43" y1="697.01" x2="1242.89" y2="702.43" gradientTransform="translate(1059.74 -985.13) rotate(105.96)" xlink:href="#linear-gradient"/><linearGradient id="linear-gradient-4" x1="15.26" y1="37.55" x2="15.26" y2="27.8" xlink:href="#linear-gradient"/><linearGradient id="linear-gradient-5" x1="26.16" y1="37.55" x2="26.16" y2="27.8" xlink:href="#linear-gradient"/><linearGradient id="linear-gradient-6" x1="20.98" y1="37.55" x2="20.98" y2="27.8" xlink:href="#linear-gradient"/></defs><g id="Layer_2" data-name="Layer 2"><g id="OBJECTS"><path class="cls-1" d="M35.3,50H6.12a6,6,0,0,1-4.91-2.07,6.52,6.52,0,0,1-1.1-5.14c.16-1,.57-3.88,1-7.19,1.29-9,2.39-16.55,2.72-17.84a5,5,0,0,1,5.15-4H27.59l-1.3-7c-.41-2.22-2.86-4-5.58-4s-5.17,1.74-5.58,4L14.36,11a1.34,1.34,0,0,1-1.57,1.12,1.41,1.41,0,0,1-1.06-1.66l.77-4.19C13.16,2.69,16.69,0,20.71,0s7.55,2.69,8.21,6.25L30.53,15a1.5,1.5,0,0,1-.28,1.18,1.35,1.35,0,0,1-1,.51H9A2.29,2.29,0,0,0,6.47,18.5c-.32,1.24-1.73,11-2.66,17.52-.5,3.47-.89,6.2-1.06,7.24a3.7,3.7,0,0,0,.51,2.84,3.61,3.61,0,0,0,2.86,1.06H35.3a3.61,3.61,0,0,0,2.86-1.06,3.7,3.7,0,0,0,.51-2.84c-.17-1-.56-3.77-1.06-7.24C36.68,29.54,35.27,19.74,35,18.5a2.27,2.27,0,0,0-.89-1.41,1.48,1.48,0,0,1-.4-2,1.3,1.3,0,0,1,1.86-.41,5.16,5.16,0,0,1,2,3.05c.33,1.29,1.43,8.84,2.72,17.84.48,3.31.89,6.17,1.05,7.19a6.48,6.48,0,0,1-1.1,5.14A5.94,5.94,0,0,1,35.3,50Z"/><path class="cls-2" d="M36.65,17.29a15.57,15.57,0,0,1-2.23-.14A1.37,1.37,0,0,1,33.3,16C33.24,15.7,32,8.5,35.65,4.47c2.34-2.58,6-3.12,8.57-3.12a17.08,17.08,0,0,1,2.22.14,1.39,1.39,0,0,1,1.13,1.14c0,.31,1.29,7.51-2.36,11.54C42.87,16.75,39.26,17.29,36.65,17.29Zm-.85-2.86.85,0c1.71,0,4.85-.29,6.63-2.24s2-5.84,1.79-8l-.85,0c-1.71,0-4.86.29-6.63,2.25S35.61,12.28,35.8,14.43Z"/><path class="cls-3" d="M44.47,25.67a4.73,4.73,0,0,1-1.37-.2c-3-.91-4.37-4.72-4.51-5.15A1.49,1.49,0,0,1,39,18.73a8.87,8.87,0,0,1,5-2,4.73,4.73,0,0,1,1.37.19c3,.92,4.37,4.72,4.51,5.16a1.46,1.46,0,0,1-.43,1.58A8.74,8.74,0,0,1,44.47,25.67Zm-2.92-5.31a4.61,4.61,0,0,0,2.28,2.38,2.2,2.2,0,0,0,.64.09A5.1,5.1,0,0,0,47,22a4.65,4.65,0,0,0-2.28-2.38,2.2,2.2,0,0,0-.64-.09A5.28,5.28,0,0,0,41.55,20.36Z"/><path class="cls-4" d="M14.14,26.74l.19,0a4,4,0,0,1,.56.18c.21.08.43.2.67.32a5.53,5.53,0,0,1,.71.48l.33.28a2,2,0,0,1,.28.3,3.48,3.48,0,0,1,.45.57l.37.6a.72.72,0,0,1-.2.95.63.63,0,0,1-.72,0l-.13-.1-.4-.3a1.84,1.84,0,0,0-.42-.23,1,1,0,0,0-.24-.11l-.26-.08a5.09,5.09,0,0,0-.51-.1c-.17,0-.32,0-.44,0a.79.79,0,0,0-.26,0l-.12,0a1.4,1.4,0,0,1-1.27-1.49A1.37,1.37,0,0,1,14.14,26.74Z"/><path class="cls-5" d="M27.42,29.57l-.12,0a.77.77,0,0,0-.25,0c-.13,0-.28,0-.45,0s-.34,0-.51.1l-.26.08a1,1,0,0,0-.24.11,1.84,1.84,0,0,0-.42.23l-.39.3-.14.1a.62.62,0,0,1-.89-.17.7.7,0,0,1,0-.76l.36-.6a4.12,4.12,0,0,1,.45-.57,2.06,2.06,0,0,1,.29-.3l.32-.28a6.33,6.33,0,0,1,.71-.48c.24-.12.47-.24.67-.32a4.45,4.45,0,0,1,.56-.18l.19,0a1.37,1.37,0,0,1,1.41,1.34A1.39,1.39,0,0,1,27.42,29.57Z"/><path class="cls-6" d="M21,37.68a8.42,8.42,0,0,1-6.05-2.61,1.11,1.11,0,0,1,0-1.51,1,1,0,0,1,1.42,0,6.4,6.4,0,0,0,9.31,0,1,1,0,0,1,1.42,0,1.11,1.11,0,0,1,0,1.51A8.45,8.45,0,0,1,21,37.68Z"/><text class="cls-7" transform="translate(48.49 40.45) scale(1.31 1)">G<tspan class="cls-8" x="9.28" y="0">r</tspan><tspan class="cls-9" x="15.13" y="0">ocecy Sto</tspan><tspan class="cls-8" x="75.67" y="0">r</tspan><tspan x="81.52" y="0">e</tspan></text></g></g></svg>